<?xml version="1.0" encoding="utf-8"?>
<!DOCTYPE svg PUBLIC "-//W3C//DTD SVG 1.1//EN" "http://www.w3.org/Graphics/SVG/1.1/DTD/svg11.dtd">
<svg version="1.1" id="Layer_1" xmlns="http://www.w3.org/2000/svg" xmlns:xlink="http://www.w3.org/1999/xlink" x="0px" y="0px"
	 width="863.828px" height="227.954px" viewBox="-17.93 1347.671 863.828 227.954"
	 enable-background="new -17.93 1347.671 863.828 227.954" xml:space="preserve">
<g>
	<path fill="none" stroke="#000000" stroke-width="5" stroke-linecap="round" stroke-linejoin="round" stroke-opacity="0.5" d="
		M783.5,1428.5l-5,1l-4-2h-18l-18,3l-17,6l-15,2h-18l-23-3h-16l-15-3l-23-1l-25-5l-42-2l-10-2l-7,1l-11-2h-25l-11-2h-30l-32-4h-38
		l-76-6l-69-2l-11-2l-77-2l-79-8l-38,1"/>
</g>
<g>
	<path fill="none" stroke="#000000" stroke-width="5" stroke-linecap="round" stroke-linejoin="round" stroke-opacity="0.5" d="
		M774.5,1428.5l4-5l3-1l-42,2l-9,4l-43,12l-22-8h-27l-32-5h-23l-20-5l-17-2l-21,1l-18-3h-51l-45-7h-32l-24-2l-23,1l-18-3h-26l-6,2
		h-17l-6-2l-25-2h-29l-6-2h-49l-8-2h-25l-19-3h-20l-23-3h-32l1-3l5,1l-1,1"/>
</g>
<g>
	<path fill="none" stroke="#000000" stroke-width="5" stroke-linecap="round" stroke-linejoin="round" stroke-opacity="0.5" d="
		M785.5,1426.5l-2,3h-5l-2-2l-5,2h-6l-2-2h-4l-4,2h-15l-3,2l-16,4l-20,1l-7-2l-8,2l-5-2h-24l-10-2l-6,2l-6-2h-34l-7-4l-15-3l-22-2
		h-25l-11-1l-5-2l-13,1l-18-3l-27,2l-23-2l-13-3h-30l-16-3l-16,1l-26-3l-30,1l-40-5h-12l-9,2l-32-2l-6-2l-29,2l-8-3l-6,1l-10-3
		l-16-1l-6-2h-29l-26-4h-8l-4,2l-3-1l-6,2l-26-1h5"/>
</g>
<g>
	<path fill="none" stroke="#000000" stroke-width="5" stroke-linecap="round" stroke-linejoin="round" stroke-opacity="0.5" d="
		M788.5,1431.5l-7-3l-21-1l-24,4h-10l-12,5l-6-1l-8,2h-12l-5-3l-2,2h-8l-12-3l-10,1l-25-4h-19l-6-2h-9l-9-3l-15,2l-4-3h-7l-9-3h-23
		l-19-3h-14l-5-2l-19,3l-9-2l-39,1l-3-2l-14-1l-5,2h-15l-9,2l-5-3l-11-3l-9,2h-9l-7-2l-12,1l-2-2l-9-1l-2-2l-8-2l-9,2h-14l-5,2
		l-30-5h-13l-11,2h-12l-8-2l-11,2l-3-2l-18-1l-18,2l-26-7h-45l-8-3h-13l-16,3l-6-3"/>
</g>
<g>
	<path fill="none" stroke="#000000" stroke-width="5" stroke-linecap="round" stroke-linejoin="round" stroke-opacity="0.5" d="
		M781.5,1429.5h2l-2-2l-10,2h-26l-7,2l-2-1l-16,2l-17,4l-1-1l-14,2h-28l-7-2l-23,1l-25-4l-19-6l-20-2l-40,1l-8-2l-35-2l-9-2l-22,1
		l-8-1l-5-3h-37l-23-4l-13,1l-14-4l-19,1l-20-3l-12,1l-6-2l-1,1l-16-2l-21,1l-8-2h-41l-11-3l-65-2l-23-3h-23l-18-2h-20l-15,3l-3-1
		l1-1v2l-1-1"/>
</g>
<g>
	<path fill="none" stroke="#000000" stroke-width="5" stroke-linecap="round" stroke-linejoin="round" stroke-opacity="0.5" d="
		M778.5,1429.5l-8,4l5-15l-13,7l1,8l7-2l1-3h-2v-2l-1,1l-9-3h-6l-7,3l-8-1l-8,5l-7,1l-12,4l-2,2h-4l-4,3l-12-4h-33l-14-5h-19l-4-2
		l-18-3l-4,2h-8l-22-6l-12,1l-1-2l-18,1l-6-2h-12l-9-2h-19l-8,2l-9-2l-11,1l-4-2l-26,1l-6-3h-22l-12-2h-49l-31-6l-18,1l-17-2l-4,3
		h-6l-23-2h-35l-6-2l-13,1l-9-3l-27,2l-15-4h-8l-14-3h-22l-18-4l-16-1l-5-2l-17,3l-8,4l-7-1l1,3"/>
</g>
<g>
	<path fill="none" stroke="#000000" stroke-width="5" stroke-linecap="round" stroke-linejoin="round" stroke-opacity="0.5" d="
		M780.5,1428.5l-4,2h-8l-3-3h-13l-27,8l-1-1l-33,3l-28-4l-10,1l-16-3h-22l-28-6l-21-1l-6-2l-13,1l-6-2l-36-2l-4-2l-14,2l-30-4l-9,1
		l-4-2l-12-1l-29,1l-8-2l-22,1l-14-2h-21l-7-2l-20,1l-18-2h-41l-28-4l-58,1l-19-2l-11-3h-25l-24-3l-5,1l-30-4h-9l-16,4"/>
</g>
<g>
	<path fill="none" stroke="#000000" stroke-width="5" stroke-linecap="round" stroke-linejoin="round" stroke-opacity="0.5" d="
		M781.5,1429.5l1,2l-25-2l-45,8h-24l-18-3l-50-1l-22-3l-5-2l-25-2l-24-4h-26l-46-4h-54l-8-2h-18l-45-4l-62-2l-16,1l-39-2l-22-3
		l-20,1l-22-3h-48l-13-3l-30-2l-11-3h-18l-8,2h-9l1-7"/>
</g>
<g>
	<path fill="none" stroke="#000000" stroke-width="5" stroke-linecap="round" stroke-linejoin="round" stroke-opacity="0.5" d="
		M780.5,1429.5l-18-3h-12l-16,4l-8,4l-14,3l-59-5l-14,1l-24-2l-40-7h-13l-24-3l-22,1l-3-2h-24l-7-1l-3-2h-39l-15-3l-38-3l-31,1
		l-61-6l-24,1l-51-3l-4,1l-18-2l-30,1l-13-1l-7-3l-10,1l-14-2h-20l-25-2l-6-2l-10,1l-15-2l-22,2l1,1"/>
</g>
<g>
	<path fill="none" stroke="#000000" stroke-width="5" stroke-linecap="round" stroke-linejoin="round" stroke-opacity="0.5" d="
		M206.5,1427.5l5-2l21-1l10,3l12-2h35l4,2l13,2l8-1l11,2h6l5-2l11,2l3-2l6,4h5l4,4h23l8,2l32-1l28,2l20-2l12,1l11-2h40l27,2l1-1l6,3
		h4l21-4l3,2l11,1l29-1l28,4h18l6,2l27-1l54,3l7,2h8l2,2"/>
</g>
<g>
	<path fill="none" stroke="#000000" stroke-width="5" stroke-linecap="round" stroke-linejoin="round" stroke-opacity="0.5" d="
		M209.5,1426.5l-1-1l3,1l10-3l17,2h22l13-3h16l16,3l16-2l37,6l14-1l6,2h11l11,3l13,1l16-2l5,2l12,1l35-1l11-3l31-1l7,2l35,2l5,2h38
		l16,5h31l21,4l8-1l5,2l94,4l7,2l4,4"/>
</g>
<g>
	<path fill="none" stroke="#000000" stroke-width="5" stroke-linecap="round" stroke-linejoin="round" stroke-opacity="0.5" d="
		M204.5,1425.5l1-1l8,3l10-2l24,2l5-2h18l8,2l15-1l8,3l16-1l4,2l5-1l11,2h6l5-2l4,3l14,2l12-1l12,3h13l3,2l33,2h48l23-4h22l4,2l10,1
		l10-2l5,2h9l7,3l16-2h41l18,3l14-1l8,3l13-2l6,2l83,3l4,2h10l2,4"/>
</g>
<g>
	<path fill="none" stroke="#000000" stroke-width="5" stroke-linecap="round" stroke-linejoin="round" stroke-opacity="0.5" d="
		M210.5,1424.5h12l21,3l5-1l3,2h18l5-2h8l7,2h19l10,2h23l7,2h12l50,7l25,1h46l4-2l16-2l3-2l20-2l16,4l14-1l15,4l11,1l53-1l12,3l4-2
		l9,1l6-2l4,2h10l4,2l18-2l7,3l3-1l4,2l5-1l9,2l10,5l6-4l12-2"/>
</g>
<g>
	<path fill="none" stroke="#000000" stroke-width="5" stroke-linecap="round" stroke-linejoin="round" stroke-opacity="0.5" d="
		M208.5,1425.5l5,1l6-2l6,2h10l29-3l4,2l17,2l1-1l12,3h39l13,3l28,1l5,2h14l6,2l43,2l8-1l11,2l23-1l34-4l5,2l29,1l19,4l10-2h19l14,2
		l31-1l8,2l131,10"/>
</g>
<g>
	<path fill="none" stroke="#000000" stroke-width="5" stroke-linecap="round" stroke-linejoin="round" stroke-opacity="0.5" d="
		M209.5,1427.5h16l11,3l5-2l8,1l12-3h74l10,3h14l9,2l2,2l18-1l5,3l7,1l25,2l7-1l3,3l13-3l12,4l15-2l5,2h10l21-7l15,5h5l7-3h8l3,3
		l20-1l7,5h15l4,6l6-2h12l6,3h10l21-5h11l7,3l14-4l12,1l10,4l6-2h7l1,2h3l6-4h4l3,2h9l10,3l7-1l7,3l11-2l15,5"/>
</g>
<g>
	<path fill="none" stroke="#000000" stroke-width="5" stroke-linecap="round" stroke-linejoin="round" stroke-opacity="0.5" d="
		M210.5,1425.5l1,1l7-3l3,2h8l3,2h11l15-4l21-1l9,3l7-1l8,4l9,1l16-2l6,2l26,1l5-2l13,3h8l7,3l15,3h7l8-3l28,5l6-2h33l7-3l9,1l14-2
		l7,2l36,3l4,2l32-2l15,2l11-1l19,3l10-1l16,3l8-1l71,4h33l11,2l3,2l-1-1v2"/>
</g>
<g>
	<path fill="none" stroke="#000000" stroke-width="5" stroke-linecap="round" stroke-linejoin="round" stroke-opacity="0.5" d="
		M795.5,1474.5l-6,5l1,1l-2-3l-19-3l-25-1l-14,3l-20,1l-10,3l-14,1l-17,5l-31,5l-5,2l-7-1l-23,3h-66l-18,2l-3,2l-35,3l-10,3l-19,1
		l-18,3l1-1"/>
</g>
<g>
	<path fill="none" stroke="#000000" stroke-width="5" stroke-linecap="round" stroke-linejoin="round" stroke-opacity="0.5" d="
		M801.5,1469.5l-11-3h-8l-18,5l-24,2l-18,4l-33,2l-14,5l-25,5l-24,1l-34,4l-20-1l-21,3h-35l-58,8l-24,1l-19,6"/>
</g>
<g>
	<path fill="none" stroke="#000000" stroke-width="5" stroke-linecap="round" stroke-linejoin="round" stroke-opacity="0.5" d="
		M788.5,1485.5l-1-2l2,1L788.5,1485.5"/>
</g>
<g>
	<path fill="none" stroke="#000000" stroke-width="5" stroke-linecap="round" stroke-linejoin="round" stroke-opacity="0.5" d="
		M795.5,1479.5l-3-2h-14l-3-3l-4-1h-29l-9,3l-14,1l-18,5l-10,1l-19,6l-26,3l-29,8l-77-1l-12,3h-15l-17,4l-11-1l-24,2l-5,2h-12l-37,7
		"/>
</g>
<g>
	<path fill="none" stroke="#000000" stroke-width="5" stroke-linecap="round" stroke-linejoin="round" stroke-opacity="0.5" d="
		M797.5,1477.5l-2-1l-4,2l-13-5h-42v2l-3,2l-3-2h-16l-4,3l-22,4l-4,3h-17l-6,3l-9,1l-6,5l-17-2l-19,3l-16-1l-11,4l-15-3l-6,2l-16,1
		l-25-1l-9,3l-3-2h-9l-8,3l-23,1l-6,2l-7-1l-4,2l-27,3"/>
</g>
<g>
	<path fill="none" stroke="#000000" stroke-width="5" stroke-linecap="round" stroke-linejoin="round" stroke-opacity="0.5" d="
		M444.5,1538.5l48,14l-22-7l-2-4l33-3l7-3h6l12-4l7-5l20-1l7-2l20-14l5,1l-3,2h66l16,1l3,2h12l6,2h20l33-5l36-9l22-8h6l2-2h2v2l1-3"
		/>
</g>
<g>
	<path fill="none" stroke="#000000" stroke-width="5" stroke-linecap="round" stroke-linejoin="round" stroke-opacity="0.5" d="
		M422.5,1543.5l15,1l15-6l7,1l1,2l10-2l21,2l42-15l21,2l6-6h3l5-5l14-6l8-7l1,1l-3,3l13,2l7,4l25-1l15-3l2,3l10-1l19,6h10l4,2h21
		l14-5l42-9l18-8h10l6,3l3-2"/>
</g>
<g>
	<path fill="none" stroke="#000000" stroke-width="5" stroke-linecap="round" stroke-linejoin="round" stroke-opacity="0.5" d="
		M423.5,1542.5h42l3-2h10l13-4h10l15-3l18-7h17l10-3l21-14h2l-2,4l1-4l6,2l13,1l63-3l21,5"/>
</g>
<g>
	<path fill="none" stroke="#000000" stroke-width="5" stroke-linecap="round" stroke-linejoin="round" stroke-opacity="0.5" d="
		M436.5,1542.5l10-4l17,3l39-2l8-3l10-1l17-6l18-2l7-3l4-4l19-9h2v2l2-1l5,2h29l5-3l8,3l27-1l5,1l4,3h2l6-6l9,3h48l6-3l23-5l2-2
		l12-1l4-4l8-2l-3-1l9-3l1,4"/>
</g>
<g>
	<path fill="none" stroke="#000000" stroke-width="5" stroke-linecap="round" stroke-linejoin="round" stroke-opacity="0.5" d="
		M804.5,1502.5l-14,14l2-11l8-8v2l-9,8l-12,1l-23,8l-11,8l-10,4l-4,5l-1,4l-5,4l-3,1l-12-2l-7,2h-9"/>
</g>
<g>
	<path fill="none" stroke="#000000" stroke-width="5" stroke-linecap="round" stroke-linejoin="round" stroke-opacity="0.5" d="
		M803.5,1498.5l-6,4l-10,1l-29,10l-14,9l-8,3l-13,13l-17,2"/>
</g>
<g>
	<path fill="none" stroke="#000000" stroke-width="5" stroke-linecap="round" stroke-linejoin="round" stroke-opacity="0.5" d="
		M798.5,1501.5l3-3l-8,8l-10-1l-35,16l-13,8l-10,12l-5,1l-2-5h-6l-6,3l-16,1"/>
</g>
<g>
	<path fill="none" stroke="#000000" stroke-width="5" stroke-linecap="round" stroke-linejoin="round" stroke-opacity="0.5" d="
		M803.5,1500.5l-10,7l-12,2l-31,12l-10,7l-8,3l-7,10l-13-2l-24,4l-4-1"/>
</g>
<g>
	<path fill="none" stroke="#000000" stroke-width="5" stroke-linecap="round" stroke-linejoin="round" stroke-opacity="0.5" d="
		M693.5,1542.5l-10,1l-7-3l-7,2l-5-1v2l7-3l30,2l10-1l6-4l6,3l16-1l6-5l7-1l4-4v-2l5-4l22-10"/>
</g>
<g>
	<path fill="none" stroke="#000000" stroke-width="5" stroke-linecap="round" stroke-linejoin="round" stroke-opacity="0.5" d="
		M706.5,1540.5l-22,3l-29-1l2-2h22l12,3h36l15-3l19-16l10-6"/>
</g>
<g>
	<path fill="none" stroke="#000000" stroke-width="5" stroke-linecap="round" stroke-linejoin="round" stroke-opacity="0.5" d="
		M690.5,1541.5l-18-2l-2,2l-3-1l-5,2l3-3l2,1l3-2l19,1l8,2h13l5-2l10,1l10-2l19-8l8-8l7-4l9-2l17-7"/>
</g>
<g>
	<path fill="none" stroke="#000000" stroke-width="5" stroke-linecap="round" stroke-linejoin="round" stroke-opacity="0.5" d="
		M683.5,1542.5l-5-2l-24,2h4l5-3l45,2l8-2l22-1l14-7l6-7l6-4l31-11l5-4"/>
</g>
</svg>
